<?xml version="1.0" encoding="iso-8859-1"?>
<!-- Generator: Adobe Illustrator 19.0.0, SVG Export Plug-In . SVG Version: 6.00 Build 0)  -->
<svg version="1.1" id="Layer_1" xmlns="http://www.w3.org/2000/svg" xmlns:xlink="http://www.w3.org/1999/xlink" x="0px" y="0px"
	 viewBox="0 0 512 512" style="enable-background:new 0 0 512 512;" xml:space="preserve">
<path style="fill:#13fd80;" d="M267.378,364.089v113.778c31.419,0,56.889-25.47,56.889-56.889S298.796,364.089,267.378,364.089z"/>
<path style="fill:#00a99d;" d="M290.133,420.978c0-31.419-10.188-56.889-22.756-56.889c-31.419,0-56.889,25.47-56.889,56.889
	s25.47,56.889,56.889,56.889C279.946,477.867,290.133,452.397,290.133,420.978z"/>
<path style="fill:#13fd80;" d="M420.978,96.711v113.778c31.419,0,56.889-25.47,56.889-56.889S452.396,96.711,420.978,96.711z"/>
<path style="fill:#00a99d;" d="M443.733,153.6c0-31.419-10.188-56.889-22.756-56.889c-31.419,0-56.889,25.47-56.889,56.889
	s25.47,56.889,56.889,56.889C433.546,210.489,443.733,185.019,443.733,153.6z"/>
<g>
	<circle style="fill:#A5C6E3;" cx="256" cy="256" r="8.533"/>
	<circle style="fill:#A5C6E3;" cx="290.133" cy="221.867" r="8.533"/>
	<circle style="fill:#A5C6E3;" cx="381.156" cy="329.956" r="8.533"/>
	<circle style="fill:#A5C6E3;" cx="142.222" cy="432.356" r="8.533"/>
</g>
<path style="fill:#13fd80;" d="M108.089,164.978v147.911c40.844,0,73.956-33.112,73.956-73.956S148.933,164.978,108.089,164.978z"/>
<path style="fill:#00a99d;" d="M147.911,238.933c0-40.844-17.829-73.956-39.822-73.956c-40.844,0-73.956,33.112-73.956,73.956
	s33.112,73.956,73.956,73.956C130.082,312.889,147.911,279.777,147.911,238.933z"/>
<g>
</g>
<g>
</g>
<g>
</g>
<g>
</g>
<g>
</g>
<g>
</g>
<g>
</g>
<g>
</g>
<g>
</g>
<g>
</g>
<g>
</g>
<g>
</g>
<g>
</g>
<g>
</g>
<g>
</g>
</svg>
