<?xml version="1.0"?>
<svg xmlns="http://www.w3.org/2000/svg" xmlns:xlink="http://www.w3.org/1999/xlink" id="Gradient" viewBox="0 0 512 512" width="512" height="512"><defs><linearGradient id="linear-gradient" x1="256" y1="496.001" x2="256" y2="15.998" gradientUnits="userSpaceOnUse"><stop offset="0" stop-color="#12c2e9"/><stop offset="0.5" stop-color="#c471ed"/><stop offset="1" stop-color="#f64f59"/></linearGradient></defs><path d="M471.369,428.056l-7.524-37.625a8.012,8.012,0,0,0-2.188-4.088L429.614,354.3l0,0L419.314,344H488a8,8,0,0,0,0-16H408V219.314L425.711,201.6a61.863,61.863,0,0,0,22.681,4.71,41.274,41.274,0,0,0,19.44-4.61c16.061-8.461,25.527-27.637,28.137-56.995a8,8,0,0,0-5.16-8.2,49.5,49.5,0,0,0-36.376,2.636c-16.351,7.8-28.912,24.122-37.376,48.482L408,196.686v-49.88l27.177-33.972a69.981,69.981,0,0,0,11.31.934c9.121,0,20.5-1.878,30.2-9.2C489.5,94.906,496,78.563,496,56a8,8,0,0,0-6.868-7.92c-1.173-.169-28.891-3.906-48.023,12.687-10.766,9.338-16.49,22.91-17.053,40.358L403.843,126.39l-11.3-45.18c3.638-6.792,10.583-23.122,3.4-38.529-6.833-14.666-24.015-23.626-51.067-26.632a7.984,7.984,0,0,0-8.576,5.753c-.343,1.2-8.223,29.6,6.517,49.139,7.552,10.012,19.269,15.65,34.87,16.821L392,144.985v36.593l-15.327-22.99a36.809,36.809,0,0,0-4.319-26.571c-9.1-15.185-29.107-24.594-59.47-27.968a7.988,7.988,0,0,0-8.835,7.067c-.171,1.539-3.946,37.876,17.052,54.218,6.485,5.047,14.366,7.571,23.571,7.571a68.95,68.95,0,0,0,20.078-3.359L392,210.422V328H248V237.481c9.458,4.412,18.251,6.632,26.324,6.632a38.839,38.839,0,0,0,17.142-3.835c24.26-11.741,28.324-45.944,28.485-47.394a8,8,0,0,0-6.819-8.8c-31.812-4.539-51.922,5.5-63.2,14.729-.669.546-1.311,1.1-1.935,1.65V184h-.013c.594-3.768,2.405-20.095-8.184-32.916C231.537,141.075,218.285,136,200.416,136a7.914,7.914,0,0,0-7.824,6.578c-.172,1.021-4.03,25.157,10.44,39.52,6.638,6.589,15.677,9.9,26.964,9.9.658,0,1.331-.023,2-.046v43.505c-1.708-1.394-3.56-2.78-5.562-4.115-12.435-8.291-33.1-16.221-60.968-6.934a8,8,0,0,0-5.28,9.325c.331,1.488,8.385,36.519,33.725,44.965a35.289,35.289,0,0,0,11.233,1.816c8.453,0,17.427-2.908,26.852-8.7V328H96V299.475a66.561,66.561,0,0,0,19.394,3.246,35.879,35.879,0,0,0,20.189-5.624C151.813,286.4,152,264.909,152,264a8,8,0,0,0-5.8-7.692c-22.729-6.5-40.278-5.241-52.163,3.723A33.326,33.326,0,0,0,88,265.921a33.326,33.326,0,0,0-6.035-5.89c-11.886-8.965-29.434-10.218-52.163-3.723A8,8,0,0,0,24,264c0,.909.187,22.395,16.417,33.1,5.687,3.75,12.433,5.624,20.189,5.624A66.572,66.572,0,0,0,80,299.475V328H24a8,8,0,0,0,0,16H72L57.6,363.2A8,8,0,0,0,56,368v24a8,8,0,0,0,16,0V370.667l16-21.334,16,21.334V392a8,8,0,0,0,16,0V368a8,8,0,0,0-1.6-4.8L104,344H220.686l-18.343,18.343a7.977,7.977,0,0,0-1.833,2.848l-24,64a8,8,0,1,0,14.98,5.618l23.392-62.377.252-.253L232,394.667V424a8,8,0,0,0,16,0V392a8,8,0,0,0-1.6-4.8l-19.837-26.45L240,347.313l48.53,48.531,7.578,45.471A8,8,0,0,0,303.99,448a8.185,8.185,0,0,0,1.325-.109,8,8,0,0,0,6.577-9.207l-8-48a8.007,8.007,0,0,0-2.235-4.342L259.314,344H382.92l-29.066,34.879a8,8,0,0,0-1.774,3.989l-7.743,54.2-30.993,46.49a8,8,0,1,0,13.312,8.876l32-48a8.01,8.01,0,0,0,1.264-3.306l7.679-53.754,32.938-39.526,12.743,12.742L385.753,395A8,8,0,0,0,384,400v22.358l-23.354,54.491a8,8,0,1,0,14.708,6.3l19.99-46.643L416.928,452.7l7.311,29.244a8,8,0,1,0,15.522-3.88l-8-32a8,8,0,0,0-2.961-4.46L400,420V402.807l24.664-30.829,23.967,23.966,7.524,37.625a8.012,8.012,0,0,0,2.188,4.088l24,24a8,8,0,0,0,11.314-11.314ZM461.038,153.724a34.317,34.317,0,0,1,18.186-3.385c-2.093,14.723-7.107,30.971-18.782,37.173-9.054,4.807-19.773,2.478-26.359.157C440.858,170.558,449.907,159.154,461.038,153.724Zm-9.512-80.811c8.658-7.555,20.61-9.137,28.162-9.287-1.131,13.192-5.345,22.635-12.569,28.122-8.542,6.489-19.909,6.467-26.806,5.654C441.377,86.708,445.135,78.489,451.526,72.913ZM330.952,152.727c-8.713-6.758-11.032-21.366-11.277-31.6,19.856,3.287,33.2,9.758,38.825,18.9a20.61,20.61,0,0,1,2.8,13.847C347.805,158.271,337.608,157.889,330.952,152.727Zm24.682-91.374c-6.494-8.565-6.217-20.832-5.222-28.387,16.6,2.817,27.254,8.434,31.01,16.415,3.741,7.947.39,17.374-2.056,22.468C368.326,71.1,360.355,67.578,355.634,61.353ZM302.428,199.077a69.007,69.007,0,0,1-2.338,7.234c-2.619,6.762-7.459,15.65-15.636,19.585-8.541,4.112-19.828,2.477-33.613-4.854C256.912,212.326,271.855,197.4,302.428,199.077ZM199.007,263.532c-10.617-3.517-17.536-16.589-20.986-25.99,26.681-5.656,43.591,8.655,50.93,17.055C217.255,263.242,207.205,266.248,199.007,263.532ZM214.286,171c-4.886-4.818-6.279-12.756-6.433-18.862,8.963,1.012,15.542,3.972,19.609,8.839,4.032,4.823,5.038,10.875,5.157,15.2C224.409,176.654,218.258,174.918,214.286,171ZM103.8,272.705c6.571-4.862,17.339-5.768,31.375-2.692-1.025,4.5-3.322,10.413-8.471,13.77-6.421,4.185-16.657,3.871-29.812-.866A19.349,19.349,0,0,1,103.8,272.705ZM49.292,283.783c-5.152-3.359-7.449-9.278-8.473-13.769,14.038-3.077,24.8-2.171,31.377,2.691A19.349,19.349,0,0,1,79.1,282.917C65.948,287.654,55.713,287.969,49.292,283.783ZM23.99,184a8.168,8.168,0,0,0,.893-.05C85.055,177.269,161,131.73,234.112,58.682l10.574,10.573a8,8,0,0,0,13.577-4.526l5.657-39.6a8,8,0,0,0-9.052-9.052l-39.6,5.657a8,8,0,0,0-4.526,13.577L222.8,47.368C152.231,117.89,79.755,161.76,23.117,168.049A8,8,0,0,0,23.99,184ZM246.572,33.428l-1.885,13.2L233.373,35.313Z" style="fill:url(#linear-gradient)"/></svg>
