<?xml version="1.0" encoding="iso-8859-1"?>
<!-- Generator: Adobe Illustrator 19.0.0, SVG Export Plug-In . SVG Version: 6.00 Build 0)  -->
<svg version="1.1" id="Layer_1" xmlns="http://www.w3.org/2000/svg" xmlns:xlink="http://www.w3.org/1999/xlink" x="0px" y="0px"
	 viewBox="0 0 512.027 512.027" style="enable-background:new 0 0 512.027 512.027;" xml:space="preserve">
<rect x="376.722" y="331.233" transform="matrix(0.7396 -0.6731 0.6731 0.7396 -180.2104 382.9098)" style="fill:#1A1718;" width="55.981" height="186.201"/>
<path style="fill:#E21B1B;" d="M237.07,55.989c85.64-0.992,155.926,67.511,157.141,153.143
	c-1.216,85.632-71.501,154.134-157.141,153.143c-85.64,0.992-155.926-67.511-157.141-153.143
	C81.145,123.499,151.43,54.997,237.07,55.989 M237.07,0.01C120.474-1.094,25.062,92.519,23.95,209.115c0,0.008,0,0.016,0,0.016
	c1.096,116.596,96.508,210.217,213.104,209.122c0.008,0,0.016,0,0.016,0c116.596,1.112,212.008-92.509,213.12-209.106
	c0-0.008,0-0.016,0-0.016C449.095,92.535,353.682-1.086,237.086,0.01C237.086,0.01,237.078,0.01,237.07,0.01z"/>
<rect x="142.913" y="189.139" style="fill:#999999;" width="188.305" height="39.985"/>
<g>
</g>
<g>
</g>
<g>
</g>
<g>
</g>
<g>
</g>
<g>
</g>
<g>
</g>
<g>
</g>
<g>
</g>
<g>
</g>
<g>
</g>
<g>
</g>
<g>
</g>
<g>
</g>
<g>
</g>
</svg>
