<svg xmlns="http://www.w3.org/2000/svg" viewBox="0 0 680 680"><defs><style>.cls-1,.cls-2{fill:none;}.cls-1{stroke:#00a99d;stroke-width:80px;}.cls-1,.cls-2,.cls-3{stroke-miterlimit:10;}.cls-2{stroke:#000;stroke-width:15px;}.cls-3{stroke:#fff;stroke-width:5px;}</style></defs><g id="Layer_2" data-name="Layer 2"><g id="People"><circle class="cls-1" cx="340" cy="340" r="300"/><g id="Hands2"><path class="cls-2" d="M136,461.88c66.68-48,87-139.52,46.89-211.38"/><path class="cls-2" d="M340.55,530c-75.4,32.35-164,2.9-205-68"/><path class="cls-2" d="M545.05,456.88c-76.75-29.35-164.4,3.93-202.38,77"/><path class="cls-2" d="M506.22,254.83C569.53,307,584,399.28,539.72,468.2"/><path class="cls-2" d="M341.65,110.9c10.67,81.47,81.62,142.76,163.92,141.46"/><path class="cls-2" d="M182.36,241.12c15.81-80.51,90.12-137.07,171.78-130.91"/></g><g id="Dots"><rect class="cls-3" x="292.39" y="62.98" width="94.12" height="94.12" rx="47.06"/><rect class="cls-3" x="88.86" y="414.74" width="94.12" height="94.12" rx="47.06"/><rect class="cls-3" x="494.74" y="413.57" width="94.12" height="94.12" rx="47.06"/><rect class="cls-3" x="155.92" y="226.51" width="47.06" height="47.06" rx="23.53"/><path class="cls-3" d="M503,273.57A23.53,23.53,0,0,1,479.45,250h0a23.53,23.53,0,1,1,47.05,0h0A23.53,23.53,0,0,1,503,273.57Z"/><rect class="cls-3" x="317.68" y="506.51" width="47.06" height="47.06" rx="23.53"/></g></g></g></svg>