<svg height="511pt" viewBox="0 -4 511.99992 511" width="511pt" xmlns="http://www.w3.org/2000/svg" xmlns:xlink="http://www.w3.org/1999/xlink"><linearGradient id="a" gradientTransform="matrix(.383591 0 0 -.383591 0 515.880983)" gradientUnits="userSpaceOnUse" x1="15.2355" x2="1265.6006" y1="28.7609" y2="1279.1261"><stop offset="0" stop-color="#41dfd0"/><stop offset="1" stop-color="#ee83ef"/></linearGradient><path d="m8.535156 504.003906h162.128906c4.714844 0 8.535157-3.820312 8.535157-8.535156v-15.855469l92.046875 12.28125c18.753906 2.5 37.835937-.25 55.125-7.9375l111.179687-49.414062c19.742188-8.796875 28.617188-31.929688 19.820313-51.671875-7.894532-17.722656-27.585938-26.984375-46.273438-21.765625l-53.238281 17.648437c.332031-.882812.511719-1.808594.539063-2.75v-153.597656c0-4.714844-3.824219-8.535156-8.535157-8.535156h-59.734375v-46.078125c42.109375 12.53125 86.636719-10.222657 101.15625-51.6875l2.558594-7.429688c1.558594-4.445312-.78125-9.308593-5.222656-10.871093l-7.421875-2.605469c-32.730469-11.511719-69.164063-1.246094-91.070313 25.660156v-55.125c35.726563 10.964844 73.734375-8.25 86.085938-43.519531l1.773437-5.117188c1.558594-4.445312-.78125-9.3125-5.222656-10.875l-5.066406-1.773437c-32.523438-11.4375-68.519531 2.675781-84.601563 33.167969-16.078125-30.488282-52.066406-44.59375-84.582031-33.152344l-5.074219 1.785156c-4.449218 1.5625-6.785156 6.433594-5.222656 10.878906l1.78125 5.070313c11.90625 34.167969 48.035156 53.492187 83.0625 44.421875v54.238281c-21.90625-26.929687-58.359375-37.203125-91.109375-25.683594l-7.421875 2.609375c-4.441406 1.5625-6.78125 6.429688-5.222656 10.871094l2.558594 7.433594c7.183593 20.664062 22.339843 37.59375 42.085937 47.007812 18.40625 8.964844 39.519531 10.640625 59.109375 4.695313v46.078125h-59.730469c-4.714843 0-8.535156 3.820312-8.535156 8.535156v126.992188l-36.144531 18.070312h-160.117188c-4.714844.003906-8.535156 3.824219-8.535156 8.535156v119.464844c0 4.714844 3.820312 8.535156 8.535156 8.535156zm317.085938-389.96875c15.40625-7.460937 33.136718-8.53125 49.328125-2.980468-5.765625 16.125-17.675781 29.316406-33.132813 36.695312-15.40625 7.460938-33.136718 8.535156-49.332031 2.976562 5.78125-16.117187 17.691406-29.304687 33.136719-36.691406zm-3.789063-91.222656c11.554688-5.582031 24.757813-6.726562 37.101563-3.207031-4.957032 11.835937-14.097656 21.433593-25.675782 26.964843-11.550781 5.59375-24.761718 6.738282-37.101562 3.207032 4.953125-11.839844 14.09375-21.445313 25.675781-26.980469zm-88.875 23.738281c-11.582031-5.523437-20.726562-15.125-25.683593-26.964843 25.542968-7.222657 52.464843 5.71875 62.777343 30.175781-12.335937 3.527343-25.542969 2.386719-37.09375-3.210938zm-11.570312 101.136719c-15.449219-7.363281-27.359375-20.539062-33.132813-36.648438 33.691406-11.441406 70.351563 6.171876 82.472656 39.628907-16.195312 5.558593-33.929687 4.488281-49.339843-2.980469zm34.609375 83.25h85.332031v34.136719h-85.332031zm57.226562 136.535156c-1.992187-2.683594-4.339844-5.078125-6.980468-7.117187l-19.816407-14.859375c-4.113281-3.058594-8.605469-5.585938-13.363281-7.507813v-4.648437h68.265625v34.132812zm27.167969 17.066406-19.625 6.507813c.109375-2.011719.058594-4.035156-.164063-6.039063 0-.164062-.085937-.308593-.101562-.46875zm-16.128906-68.265624v-34.136719h17.066406v34.136719zm-102.398438-85.335938h17.066407v34.136719h-17.066407zm0 51.199219h85.332031v34.136719h-85.332031zm0 51.203125h34.132813v.398437c-11.066406-.988281-22.191406 1.128907-32.117188 6.121094l-2.015625 1.003906zm-42.664062 47.9375 52.316406-26.152344c14.441406-7.289062 31.773437-5.726562 44.679687 4.027344l19.804688 14.855468c8.636719 6.441407 10.414062 18.664063 3.972656 27.300782-6.214844 8.328125-17.867187 10.324218-26.5 4.535156l-29.804687-19.871094c-3.921875-2.617187-9.222657-1.558594-11.835938 2.363282-2.617187 3.921874-1.558593 9.21875 2.363281 11.835937l29.804688 19.871094c15.765625 10.628906 37.054688 7.320312 48.855469-7.585938.28125-.347656.460937-.757812.722656-1.117187h.300781l102.082032-33.859375c11.777343-3.160157 23.882812 3.828125 27.042968 15.601562 2.816406 10.507813-2.4375 21.5-12.382812 25.90625l-111.179688 49.378907c-14.40625 6.410156-30.3125 8.699218-45.941406 6.605468l-94.300781-12.570312zm-51.199219 3.261718h34.132812v102.398438h-34.132812zm-110.933594 0h93.867188v102.398438h-93.867188zm37.949219-91.632812c20.085937 26.167969 57.585937 31.097656 83.753906 11.011719 26.167969-20.089844 31.097657-57.589844 11.007813-83.757813-20.089844-26.167968-57.585938-31.09375-83.753906-11.007812-26.160157 20.03125-31.132813 57.472656-11.101563 83.632812.03125.042969.0625.082032.09375.121094zm21.398437-70.210938c18.691407-14.347656 45.476563-10.828124 59.824219 7.863282 14.351563 18.691406 10.832031 45.476562-7.859375 59.824218-18.691406 14.347657-45.476562 10.828126-59.824218-7.863281-.003907 0-.003907-.003906-.007813-.003906-14.367187-18.515625-11.007813-45.175781 7.507813-59.542969.121093-.09375.238281-.183594.359374-.277344zm31.183594 40.609376c1.1875-.910157 2.117188-2.113282 2.695313-3.496094 1.929687-4.300782 6.976562-6.222656 11.277343-4.292969 4.125 1.847656 6.089844 6.59375 4.484376 10.820313-3.503907 8.457031-11.253907 14.398437-20.328126 15.589843-.367187.046875-.738281.070313-1.109374.066407-4.710938-.027344-8.511719-3.867188-8.484376-8.582032.023438-4.25 3.175782-7.835937 7.390626-8.40625 1.484374-.191406 2.890624-.78125 4.074218-1.699218zm-28.851562-16.554688c3.496094-8.457031 11.246094-14.40625 20.324218-15.597656 4.675782-.609375 8.957032 2.6875 9.566407 7.363281s-2.6875 8.957031-7.363281 9.566406c-1.488282.191407-2.894532.78125-4.070313 1.707031-1.191406.90625-2.125 2.113282-2.699219 3.5-1.644531 4.414063-6.5625 6.65625-10.976562 5.007813-4.414063-1.644531-6.660156-6.5625-5.011719-10.976563.070313-.1875.144531-.371093.230469-.550781zm314.378906-41.496094c4.199219 29.378906 29.332031 51.222656 59.007812 51.285156 2.871094 0 5.734376-.203124 8.578126-.605468 32.65625-4.667969 55.347656-34.925782 50.679687-67.582032-4.664063-32.660156-34.925781-55.347656-67.582031-50.683593-32.65625 4.667969-55.34375 34.921875-50.683594 67.578125zm25.003906-34.046875c6.769532-9.074219 16.886719-15.066406 28.101563-16.640625 2.027343-.285156 4.074219-.429687 6.125-.425781 23.5625.050781 42.625 19.195313 42.574219 42.757813-.054688 23.566406-19.199219 42.625-42.761719 42.574218-23.5625-.050781-42.625-19.195312-42.570313-42.761718.019532-9.199219 3.011719-18.144532 8.53125-25.503907zm10.582032 35.660157c-1.851563-4.335938.160156-9.351563 4.496093-11.203126 4.335938-1.851562 9.351563.160157 11.203125 4.496094 1.199219 2.804688 3.800782 4.753906 6.828125 5.121094 4.679688.554688 8.023438 4.800781 7.464844 9.480469-.507813 4.285156-4.136719 7.515625-8.453125 7.523437-.335938 0-.671875-.023437-1.007812-.058594-9.078126-1.101562-16.878907-6.953124-20.480469-15.359374zm17.117187-27.980469c.589844-4.65625 4.804687-7.980469 9.472656-7.46875 9.078125 1.105469 16.878907 6.957031 20.480469 15.363281 1.851562 4.332031-.164062 9.351562-4.5 11.203125s-9.351562-.160156-11.203125-4.496094c-1.195313-2.804687-3.800781-4.757812-6.828125-5.121093-4.660156-.578126-7.980469-4.816407-7.421875-9.480469zm-386.09375-58.878907h-17.066406v-17.066406h17.066406zm0 51.199219h-17.066406v-17.066406h17.066406zm25.597656-25.601562h-17.066406v-17.066407h17.066406zm-51.199219 0h-17.066406v-17.066407h17.066406zm435.195313-119.464844h-17.066406v-17.066406h17.066406zm0 51.199219h-17.066406v-17.066406h17.066406zm25.601563-25.597656h-17.066407v-17.066407h17.066407zm-51.199219 0h-17.066407v-17.066407h17.066407zm0 0" fill="url(#a)"/></svg>